<?xml version="1.0" standalone="no"?>
<!DOCTYPE svg PUBLIC "-//W3C//DTD SVG 20010904//EN"
 "http://www.w3.org/TR/2001/REC-SVG-20010904/DTD/svg10.dtd">
<svg version="1.0" xmlns="http://www.w3.org/2000/svg"
 width="182.000000pt" height="201.000000pt" viewBox="0 0 182.000000 201.000000"
 preserveAspectRatio="xMidYMid meet">

<g transform="translate(0.000000,201.000000) scale(0.100000,-0.100000)"
fill="#000000" stroke="none">
<path d="M982 1999 c2 -6 8 -10 13 -10 5 0 11 4 13 10 2 6 -4 11 -13 11 -9 0
-15 -5 -13 -11z"/>
<path d="M507 1823 c-14 -16 -17 -38 -16 -129 1 -60 6 -117 11 -127 5 -9 24
-23 43 -31 l33 -14 0 -422 0 -421 -39 -20 c-22 -11 -41 -29 -44 -42 -3 -12 -5
-69 -3 -127 3 -100 4 -105 28 -118 20 -10 97 -11 375 -7 193 4 370 11 393 16
89 20 178 82 211 148 41 81 61 271 41 391 -15 93 -29 126 -70 173 l-32 37 31
48 c16 26 35 72 42 102 17 78 6 300 -17 370 -24 72 -82 130 -160 161 -57 22
-70 23 -434 27 -360 4 -376 3 -393 -15z m683 -313 c40 -22 53 -131 22 -190
-19 -35 -51 -57 -39 -26 9 22 1 20 -39 -10 -19 -15 -38 -24 -42 -20 -7 8 38
51 73 71 10 6 16 16 14 23 -2 7 -32 -10 -76 -43 l-73 -55 -80 0 -80 0 0 43 c0
46 14 65 109 137 24 19 38 36 32 38 -7 2 -39 -16 -71 -42 -67 -51 -93 -44 -34
9 26 24 33 35 22 35 -9 0 -20 -4 -23 -10 -12 -19 -35 -10 -35 13 0 13 3 27 7
30 10 11 292 8 313 -3z m31 -578 c26 -29 29 -39 29 -103 0 -84 -9 -104 -57
-124 -62 -26 -71 -17 -23 24 65 56 41 63 -26 7 l-56 -46 -110 0 -109 0 3 62 3
61 65 50 c36 27 67 54 69 59 4 13 -55 -18 -96 -50 -27 -20 -33 -21 -33 -8 0 8
11 23 25 32 29 19 34 40 6 24 -11 -5 -24 -10 -30 -10 -12 0 -15 43 -3 54 4 4
76 6 160 4 l154 -3 29 -33z"/>
<path d="M1012 1430 c-77 -54 -92 -70 -66 -70 15 0 154 104 154 115 0 13 -23
1 -88 -45z"/>
<path d="M1071 1412 c-40 -31 -68 -58 -62 -60 12 -4 95 54 125 87 37 40 10 29
-63 -27z"/>
<path d="M1102 1373 c-58 -46 -79 -72 -48 -60 21 8 124 90 125 100 2 16 -19 5
-77 -40z"/>
<path d="M1019 891 c-24 -16 -57 -41 -74 -55 -26 -21 -27 -25 -11 -26 16 0 97
55 151 102 24 21 -26 5 -66 -21z"/>
<path d="M1065 864 c-70 -59 -81 -85 -18 -40 71 50 119 96 101 96 -9 0 -47
-25 -83 -56z"/>
<path d="M1144 861 c-71 -53 -99 -79 -93 -86 8 -7 139 94 139 107 0 12 -4 10
-46 -21z"/>
<path d="M1129 788 c-35 -28 -58 -53 -52 -55 13 -5 133 85 133 99 0 17 -21 6
-81 -44z"/>
<path d="M343 1654 c-32 -24 -42 -44 -25 -44 5 0 26 16 48 35 46 40 26 48 -23
9z"/>
<path d="M390 1623 c-25 -19 -53 -41 -64 -48 -10 -7 -16 -19 -14 -26 2 -7 27
7 63 36 86 69 93 75 75 74 -8 0 -35 -16 -60 -36z"/>
<path d="M378 1554 c-61 -41 -83 -64 -60 -64 10 0 128 86 137 99 12 21 -10 10
-77 -35z"/>
<path d="M430 1533 c-17 -7 -101 -73 -112 -88 -25 -34 36 1 112 65 33 28 33
35 0 23z"/>
<path d="M398 1450 c-62 -45 -83 -70 -59 -70 13 0 141 100 141 110 0 17 -14
11 -82 -40z"/>
<path d="M462 1433 c-41 -30 -71 -57 -68 -60 6 -7 63 31 116 76 62 53 27 41
-48 -16z"/>
<path d="M470 1378 c-69 -53 -90 -80 -44 -54 38 20 120 93 114 100 -3 2 -35
-18 -70 -46z"/>
<path d="M463 1314 c-35 -25 -63 -53 -63 -61 0 -10 11 -5 38 17 20 17 52 40
70 52 29 18 43 39 25 38 -5 -1 -36 -21 -70 -46z"/>
<path d="M465 1254 c-33 -26 -62 -53 -64 -61 -4 -19 31 4 99 66 61 54 39 51
-35 -5z"/>
<path d="M470 1198 c-36 -27 -67 -57 -69 -65 -3 -17 37 10 108 70 59 49 28 46
-39 -5z"/>
<path d="M465 1134 c-33 -26 -62 -53 -64 -62 -2 -13 0 -14 10 -6 8 6 40 30 72
53 51 37 71 62 50 61 -5 -1 -35 -21 -68 -46z"/>
<path d="M463 1072 c-34 -26 -62 -53 -63 -60 0 -18 27 -2 87 49 85 74 68 82
-24 11z"/>
<path d="M466 1010 c-36 -28 -66 -57 -66 -66 0 -9 26 6 70 42 59 47 83 74 66
74 -1 0 -33 -23 -70 -50z"/>
<path d="M465 949 c-64 -53 -87 -86 -39 -55 75 48 136 108 107 105 -5 0 -35
-23 -68 -50z"/>
<path d="M462 888 c-34 -24 -62 -49 -62 -56 0 -17 24 -4 79 43 24 19 47 35 52
35 5 0 9 5 9 10 0 17 -14 11 -78 -32z"/>
<path d="M467 829 c-61 -47 -80 -69 -59 -69 11 0 132 101 132 111 0 13 -1 13
-73 -42z"/>
<path d="M470 770 c-61 -47 -82 -70 -63 -70 13 0 133 100 133 110 0 14 3 15
-70 -40z"/>
<path d="M494 727 c-21 -18 -51 -41 -66 -50 -16 -10 -28 -24 -28 -33 0 -10 20
0 60 32 65 51 86 72 78 79 -2 3 -22 -10 -44 -28z"/>
<path d="M460 644 c-30 -24 -57 -51 -59 -60 -2 -10 27 8 68 42 39 32 71 59 71
61 0 13 -34 -5 -80 -43z"/>
<path d="M415 543 c-16 -16 -43 -35 -60 -44 -16 -9 -32 -25 -34 -35 -2 -14 0
-16 10 -8 8 6 40 30 72 53 31 23 57 46 57 51 0 17 -14 11 -45 -17z"/>
<path d="M378 454 c-32 -25 -58 -50 -58 -55 0 -5 29 14 65 42 36 28 65 53 65
55 0 11 -20 0 -72 -42z"/>
<path d="M381 403 c-33 -26 -61 -53 -61 -61 0 -12 105 63 131 94 24 29 -10 12
-70 -33z"/>
<path d="M384 344 c-71 -55 -89 -93 -21 -44 53 37 105 90 91 90 -6 0 -37 -21
-70 -46z"/>
<path d="M1209 302 c-73 -48 -106 -78 -97 -87 4 -5 92 55 153 103 53 42 18 32
-56 -16z"/>
<path d="M387 285 c-62 -42 -82 -65 -56 -65 9 0 41 23 117 87 46 38 10 25 -61
-22z"/>
<path d="M718 293 c-100 -69 -115 -82 -95 -83 20 0 157 97 157 111 0 13 -3 12
-62 -28z"/>
<path d="M792 289 c-67 -45 -103 -79 -83 -79 16 0 151 100 151 111 0 13 -2 12
-68 -32z"/>
<path d="M973 303 c-64 -45 -119 -93 -104 -93 17 0 151 99 151 111 0 13 -3 12
-47 -18z"/>
<path d="M1054 302 c-62 -42 -120 -92 -106 -92 14 0 138 85 148 101 12 21 -3
17 -42 -9z"/>
<path d="M445 268 c-38 -28 -64 -53 -57 -56 9 -3 142 95 142 105 0 11 -26 -3
-85 -49z"/>
<path d="M555 294 c-48 -32 -95 -75 -95 -86 0 -5 29 13 64 39 35 26 72 53 82
60 15 9 16 12 4 12 -9 1 -33 -11 -55 -25z"/>
<path d="M608 272 c-80 -56 -86 -62 -66 -62 8 0 39 18 69 39 95 69 95 70 79
70 -8 0 -45 -21 -82 -47z"/>
<path d="M845 268 c-38 -28 -63 -54 -56 -56 12 -4 60 26 121 78 61 51 8 34
-65 -22z"/>
<path d="M1103 282 c-50 -40 -80 -72 -68 -72 8 0 145 101 145 106 0 14 -36 -2
-77 -34z"/>
</g>
</svg>
